<mxfile host="app.diagrams.net" agent="Mozilla/5.0 (X11; Ubuntu; Linux x86_64; rv:143.0) Gecko/20100101 Firefox/143.0" version="28.2.5">
  <diagram name="Página-1" id="h-n4Qk0J0T3QkIA8bF4s">
    <mxGraphModel dx="938" dy="528" grid="1" gridSize="10" guides="1" tooltips="1" connect="1" arrows="1" fold="1" page="1" pageScale="1" pageWidth="827" pageHeight="1169" math="0" shadow="0">
      <root>
        <mxCell id="0" />
        <mxCell id="1" parent="0" />
        <mxCell id="kjDKSDs41qz1aMEq6AeZ-4" style="edgeStyle=orthogonalEdgeStyle;rounded=0;orthogonalLoop=1;jettySize=auto;html=1;" edge="1" parent="1" source="kjDKSDs41qz1aMEq6AeZ-1" target="kjDKSDs41qz1aMEq6AeZ-3">
          <mxGeometry relative="1" as="geometry" />
        </mxCell>
        <mxCell id="kjDKSDs41qz1aMEq6AeZ-5" style="edgeStyle=orthogonalEdgeStyle;rounded=0;orthogonalLoop=1;jettySize=auto;html=1;" edge="1" parent="1" source="kjDKSDs41qz1aMEq6AeZ-1" target="kjDKSDs41qz1aMEq6AeZ-2">
          <mxGeometry relative="1" as="geometry" />
        </mxCell>
        <mxCell id="kjDKSDs41qz1aMEq6AeZ-1" value="&lt;div&gt;Inventario&lt;/div&gt;" style="rounded=0;whiteSpace=wrap;html=1;" vertex="1" parent="1">
          <mxGeometry x="390" y="50" width="120" height="60" as="geometry" />
        </mxCell>
        <mxCell id="kjDKSDs41qz1aMEq6AeZ-21" style="edgeStyle=orthogonalEdgeStyle;rounded=0;orthogonalLoop=1;jettySize=auto;html=1;" edge="1" parent="1" source="kjDKSDs41qz1aMEq6AeZ-2" target="kjDKSDs41qz1aMEq6AeZ-20">
          <mxGeometry relative="1" as="geometry" />
        </mxCell>
        <mxCell id="kjDKSDs41qz1aMEq6AeZ-22" style="edgeStyle=orthogonalEdgeStyle;rounded=0;orthogonalLoop=1;jettySize=auto;html=1;" edge="1" parent="1" source="kjDKSDs41qz1aMEq6AeZ-2" target="kjDKSDs41qz1aMEq6AeZ-19">
          <mxGeometry relative="1" as="geometry" />
        </mxCell>
        <mxCell id="kjDKSDs41qz1aMEq6AeZ-23" style="edgeStyle=orthogonalEdgeStyle;rounded=0;orthogonalLoop=1;jettySize=auto;html=1;" edge="1" parent="1" source="kjDKSDs41qz1aMEq6AeZ-2" target="kjDKSDs41qz1aMEq6AeZ-18">
          <mxGeometry relative="1" as="geometry" />
        </mxCell>
        <mxCell id="kjDKSDs41qz1aMEq6AeZ-25" style="edgeStyle=orthogonalEdgeStyle;rounded=0;orthogonalLoop=1;jettySize=auto;html=1;" edge="1" parent="1" source="kjDKSDs41qz1aMEq6AeZ-2" target="kjDKSDs41qz1aMEq6AeZ-24">
          <mxGeometry relative="1" as="geometry" />
        </mxCell>
        <mxCell id="kjDKSDs41qz1aMEq6AeZ-2" value="Hardware" style="rounded=0;whiteSpace=wrap;html=1;" vertex="1" parent="1">
          <mxGeometry x="640" y="160" width="120" height="60" as="geometry" />
        </mxCell>
        <mxCell id="kjDKSDs41qz1aMEq6AeZ-9" style="edgeStyle=orthogonalEdgeStyle;rounded=0;orthogonalLoop=1;jettySize=auto;html=1;" edge="1" parent="1" source="kjDKSDs41qz1aMEq6AeZ-3" target="kjDKSDs41qz1aMEq6AeZ-8">
          <mxGeometry relative="1" as="geometry" />
        </mxCell>
        <mxCell id="kjDKSDs41qz1aMEq6AeZ-10" style="edgeStyle=orthogonalEdgeStyle;rounded=0;orthogonalLoop=1;jettySize=auto;html=1;" edge="1" parent="1" source="kjDKSDs41qz1aMEq6AeZ-3" target="kjDKSDs41qz1aMEq6AeZ-7">
          <mxGeometry relative="1" as="geometry" />
        </mxCell>
        <mxCell id="kjDKSDs41qz1aMEq6AeZ-11" style="edgeStyle=orthogonalEdgeStyle;rounded=0;orthogonalLoop=1;jettySize=auto;html=1;" edge="1" parent="1" source="kjDKSDs41qz1aMEq6AeZ-3" target="kjDKSDs41qz1aMEq6AeZ-6">
          <mxGeometry relative="1" as="geometry" />
        </mxCell>
        <mxCell id="kjDKSDs41qz1aMEq6AeZ-3" value="Programas" style="rounded=0;whiteSpace=wrap;html=1;" vertex="1" parent="1">
          <mxGeometry x="180" y="160" width="120" height="60" as="geometry" />
        </mxCell>
        <mxCell id="kjDKSDs41qz1aMEq6AeZ-17" style="edgeStyle=orthogonalEdgeStyle;rounded=0;orthogonalLoop=1;jettySize=auto;html=1;" edge="1" parent="1" source="kjDKSDs41qz1aMEq6AeZ-6" target="kjDKSDs41qz1aMEq6AeZ-12">
          <mxGeometry relative="1" as="geometry" />
        </mxCell>
        <mxCell id="kjDKSDs41qz1aMEq6AeZ-6" value="Programa" style="rounded=0;whiteSpace=wrap;html=1;" vertex="1" parent="1">
          <mxGeometry x="310" y="270" width="120" height="60" as="geometry" />
        </mxCell>
        <mxCell id="kjDKSDs41qz1aMEq6AeZ-16" style="edgeStyle=orthogonalEdgeStyle;rounded=0;orthogonalLoop=1;jettySize=auto;html=1;" edge="1" parent="1" source="kjDKSDs41qz1aMEq6AeZ-7" target="kjDKSDs41qz1aMEq6AeZ-13">
          <mxGeometry relative="1" as="geometry" />
        </mxCell>
        <mxCell id="kjDKSDs41qz1aMEq6AeZ-7" value="Programa" style="rounded=0;whiteSpace=wrap;html=1;" vertex="1" parent="1">
          <mxGeometry x="180" y="270" width="120" height="60" as="geometry" />
        </mxCell>
        <mxCell id="kjDKSDs41qz1aMEq6AeZ-15" style="edgeStyle=orthogonalEdgeStyle;rounded=0;orthogonalLoop=1;jettySize=auto;html=1;" edge="1" parent="1" source="kjDKSDs41qz1aMEq6AeZ-8" target="kjDKSDs41qz1aMEq6AeZ-14">
          <mxGeometry relative="1" as="geometry" />
        </mxCell>
        <mxCell id="kjDKSDs41qz1aMEq6AeZ-8" value="Programa" style="rounded=0;whiteSpace=wrap;html=1;" vertex="1" parent="1">
          <mxGeometry x="50" y="270" width="120" height="60" as="geometry" />
        </mxCell>
        <mxCell id="kjDKSDs41qz1aMEq6AeZ-12" value="Visual Studio" style="rounded=0;whiteSpace=wrap;html=1;fillColor=#fff2cc;strokeColor=#d6b656;" vertex="1" parent="1">
          <mxGeometry x="310" y="360" width="120" height="60" as="geometry" />
        </mxCell>
        <mxCell id="kjDKSDs41qz1aMEq6AeZ-13" value="Office" style="rounded=0;whiteSpace=wrap;html=1;fillColor=#fff2cc;strokeColor=#d6b656;" vertex="1" parent="1">
          <mxGeometry x="180" y="360" width="120" height="60" as="geometry" />
        </mxCell>
        <mxCell id="kjDKSDs41qz1aMEq6AeZ-14" value="Contaplus" style="rounded=0;whiteSpace=wrap;html=1;fillColor=#fff2cc;strokeColor=#d6b656;" vertex="1" parent="1">
          <mxGeometry x="50" y="360" width="120" height="60" as="geometry" />
        </mxCell>
        <mxCell id="kjDKSDs41qz1aMEq6AeZ-32" style="edgeStyle=orthogonalEdgeStyle;rounded=0;orthogonalLoop=1;jettySize=auto;html=1;" edge="1" parent="1" source="kjDKSDs41qz1aMEq6AeZ-18" target="kjDKSDs41qz1aMEq6AeZ-26">
          <mxGeometry relative="1" as="geometry" />
        </mxCell>
        <mxCell id="kjDKSDs41qz1aMEq6AeZ-18" value="Monitor" style="rounded=0;whiteSpace=wrap;html=1;" vertex="1" parent="1">
          <mxGeometry x="710" y="270" width="120" height="60" as="geometry" />
        </mxCell>
        <mxCell id="kjDKSDs41qz1aMEq6AeZ-31" style="edgeStyle=orthogonalEdgeStyle;rounded=0;orthogonalLoop=1;jettySize=auto;html=1;" edge="1" parent="1" source="kjDKSDs41qz1aMEq6AeZ-19" target="kjDKSDs41qz1aMEq6AeZ-27">
          <mxGeometry relative="1" as="geometry" />
        </mxCell>
        <mxCell id="kjDKSDs41qz1aMEq6AeZ-19" value="Ordenador" style="rounded=0;whiteSpace=wrap;html=1;" vertex="1" parent="1">
          <mxGeometry x="580" y="270" width="120" height="60" as="geometry" />
        </mxCell>
        <mxCell id="kjDKSDs41qz1aMEq6AeZ-30" style="edgeStyle=orthogonalEdgeStyle;rounded=0;orthogonalLoop=1;jettySize=auto;html=1;" edge="1" parent="1" source="kjDKSDs41qz1aMEq6AeZ-20" target="kjDKSDs41qz1aMEq6AeZ-28">
          <mxGeometry relative="1" as="geometry" />
        </mxCell>
        <mxCell id="kjDKSDs41qz1aMEq6AeZ-20" value="Ordenador" style="rounded=0;whiteSpace=wrap;html=1;" vertex="1" parent="1">
          <mxGeometry x="450" y="270" width="120" height="60" as="geometry" />
        </mxCell>
        <mxCell id="kjDKSDs41qz1aMEq6AeZ-33" style="edgeStyle=orthogonalEdgeStyle;rounded=0;orthogonalLoop=1;jettySize=auto;html=1;" edge="1" parent="1" source="kjDKSDs41qz1aMEq6AeZ-24" target="kjDKSDs41qz1aMEq6AeZ-29">
          <mxGeometry relative="1" as="geometry" />
        </mxCell>
        <mxCell id="kjDKSDs41qz1aMEq6AeZ-24" value="Impresora" style="rounded=0;whiteSpace=wrap;html=1;" vertex="1" parent="1">
          <mxGeometry x="840" y="270" width="120" height="60" as="geometry" />
        </mxCell>
        <mxCell id="kjDKSDs41qz1aMEq6AeZ-26" value="Monitor Acer" style="rounded=0;whiteSpace=wrap;html=1;fillColor=#fff2cc;strokeColor=#d6b656;" vertex="1" parent="1">
          <mxGeometry x="710" y="360" width="120" height="60" as="geometry" />
        </mxCell>
        <mxCell id="kjDKSDs41qz1aMEq6AeZ-27" value="Sobremesa Compaq 10" style="rounded=0;whiteSpace=wrap;html=1;fillColor=#fff2cc;strokeColor=#d6b656;" vertex="1" parent="1">
          <mxGeometry x="580" y="360" width="120" height="60" as="geometry" />
        </mxCell>
        <mxCell id="kjDKSDs41qz1aMEq6AeZ-28" value="Portátil HP Envy 7" style="rounded=0;whiteSpace=wrap;html=1;fillColor=#fff2cc;strokeColor=#d6b656;" vertex="1" parent="1">
          <mxGeometry x="450" y="360" width="120" height="60" as="geometry" />
        </mxCell>
        <mxCell id="kjDKSDs41qz1aMEq6AeZ-29" value="Impresora Brother" style="rounded=0;whiteSpace=wrap;html=1;fillColor=#fff2cc;strokeColor=#d6b656;" vertex="1" parent="1">
          <mxGeometry x="840" y="360" width="120" height="60" as="geometry" />
        </mxCell>
      </root>
    </mxGraphModel>
  </diagram>
</mxfile>
